<?xml version="1.0" encoding="utf-8"?>
<!-- Generator: Adobe Illustrator 21.0.0, SVG Export Plug-In . SVG Version: 6.00 Build 0)  -->
<svg version="1.1" id="Calque_1" xmlns="http://www.w3.org/2000/svg" xmlns:xlink="http://www.w3.org/1999/xlink" x="0px" y="0px"
	 viewBox="0 0 300 300" style="enable-background:new 0 0 300 300;" xml:space="preserve">
<style type="text/css">
	.st0{fill:#367A81;}
	.st1{fill:none;}
</style>
<g>
	<path class="st0" d="M91.4,54.9c-2,0.3-2.8,2.8-1.4,4.2l12.7,12.7c6,6,6,15.8,0,21.8l-7.8,7.8c-6,6-15.8,6-21.8,0L60.4,88.7
		c-1.4-1.4-3.9-0.6-4.2,1.4c-1.9,12.7,2,26.1,11.8,35.8c9.6,9.6,22.6,13.5,35.1,11.9c5.5-0.7,11,1.1,14.9,5l94.8,94.8
		c7.2,7.2,18.9,7.2,26.1,0c7.2-7.2,7.3-18.9,0-26.1l-94.8-94.8c-3.9-3.9-5.8-9.4-5-14.9c1.6-12.4-2.3-25.5-11.9-35.1
		C117.4,57,104,53,91.4,54.9z M228,219.1c2.1,2.1,2.1,5.5,0,7.6s-5.5,2.1-7.6,0l-96.7-96.7c-2.1-2.1-2.1-5.5,0-7.6
		c2.1-2.1,5.5-2.1,7.6,0L228,219.1z"/>
</g>
<line class="st1" x1="160.3" y1="132.9" x2="159.7" y2="183.4"/>
</svg>
